# xmcd
#
# Track frame offsets:
#	150
#	15934
#	34351
#	47850
#	65397
#	86581
#	103737
#	120643
#	137361
#	152351
#	165739
#	183216
#	204107
#	221431
#	240218
#
# Disc length: 3450 seconds
#
# Revision: 1
# Processed by: cddbd v1.5.1PL0 Copyright (c) Steve Scherf et al.
# Submitted via: audiograbber 1.83.01
#
DISCID=b30d780f
DTITLE=Various Artist - Весенняя побелочка. Песни о войне и Победе. 
DYEAR=1900
DGENRE=
TTITLE0=Клавдия Шульженко. - У полустаночка.
TTITLE1=Е. Бедненко. - Весенняя побелочка.
TTITLE2=А. Булдаков and Хорус. - От рядового до генерала.
TTITLE3=Я. Евдокимов. - Прохоровское поле.
TTITLE4=Людмила Зыкина. - Рязанские мадонны.
TTITLE5=А. Булдаков and Хорус. - Трава-мурава.
TTITLE6=Б. Киров. - Мама белила хату.
TTITLE7=братья Радченко. - Вьюга.
TTITLE8=Э. Хиль. - Отгремели походные трубы.
TTITLE9=Л. Сенчина и детский хор. - Аист на крыше.
TTITLE10=Иосиф Кобзон. - Рано помирать.
TTITLE11=А. Морозов. - Уехать в Севостополь.
TTITLE12=Краснознаменный ансамбль. - Баллада о земле.
TTITLE13=Маша Распутина. - Грустит душа.
TTITLE14=Н. Гнатюк. - Малиновый звон.
EXTD=
EXTT0=
EXTT1=
EXTT2=
EXTT3=
EXTT4=
EXTT5=
EXTT6=
EXTT7=
EXTT8=
EXTT9=
EXTT10=
EXTT11=
EXTT12=
EXTT13=
EXTT14=
PLAYORDER=
